<svg width="62" height="127" viewBox="0 0 62 127" fill="none" xmlns="http://www.w3.org/2000/svg">
<path d="M26.2931 -5.99997H91.7109L91.7109 93.4916C91.7109 111.552 77.0626 126.201 59.002 126.201C40.9414 126.201 26.2931 111.552 26.2931 93.4916L26.2931 -5.99997Z" fill="#67C9F5"/>
<path d="M45.5805 93.1856C44.3772 100.6 49.4122 107.586 56.8265 108.789C64.2409 109.992 71.2268 104.957 72.4301 97.5431C73.6334 90.1288 68.5984 83.1428 61.1841 81.9395C53.7697 80.7362 46.7838 85.7713 45.5805 93.1856Z" fill="#0063A2"/>
<path d="M62.9247 -1.39103V61.5028C28.1757 61.5028 0 33.3271 0 -1.42191H62.9247V-1.39103Z" fill="#001858"/>
<path d="M99.509 -0.275974C99.509 -22.0635 81.8568 -39.7158 60.0692 -39.7158C38.2816 -39.7158 20.6294 -22.0635 20.6294 -0.275974C20.6294 21.5116 38.2816 39.1638 60.0692 39.1638C81.8259 39.1638 99.509 21.5116 99.509 -0.275974Z" fill="#FDF6E4"/>
<path d="M37.8926 -1.32183H62.0255V22.7803C48.6938 22.7803 37.8926 11.9791 37.8926 -1.32183Z" fill="#176F39"/>
</svg>
