<svg width="85" height="56" viewBox="0 0 85 56" fill="none" xmlns="http://www.w3.org/2000/svg">
<path d="M50.7674 -21.9109C61.6275 -16.7227 69.9499 -8.06113 76.0765 3.1054C81.9457 15.2774 84.1631 22.665 85.002 37.4775C81.9177 44.7892 78.7768 52.0735 76.0125 59.5499C75.5449 60.7543 75.1658 58.5732 74.8876 57.9284C72.7683 53.0146 70.356 48.2407 68.3548 43.261C67.796 41.8672 66.3241 38.7505 66.1567 37.4665C65.9401 35.8148 66.9641 32.3716 67.0871 30.4017C68.4902 7.79424 51.2597 -10.6319 31.0606 -8.38214C24.5524 -7.65782 21.1112 -6.02262 14.2534 -8.10229C7.6123 -10.1188 -2.94508 -17.8888 -5.08659 -25.5078L-5.09358 -25.5327C-5.32756 -26.3658 -5.43352 -26.7431 -4.4269 -26.8138C13.7808 -25.6477 33.6156 -30.1034 50.7674 -21.9109Z" fill="#176F39"/>
<path d="M5.37087 -2.03887C2.63122 -2.51352 0.839241 0.183458 -0.553967 2.47438C-7.14587 13.3117 -8.56125 29.8804 -5.34406 42.2761C1.37092 68.1292 26.0376 84.5909 49.4933 75.2681C51.945 74.2941 56.2107 72.2419 57.7344 69.9125C59.7701 66.804 58.623 62.4965 56.1295 60.1782C52.1345 56.4661 49.8354 59.5938 45.8601 61.0671C21.0556 70.261 -0.546585 41.2554 8.6299 14.9057C10.1339 10.5873 13.836 6.65566 10.924 1.91468C9.89511 0.241076 7.17023 -1.72884 5.3684 -2.04161L5.37087 -2.03887Z" fill="#176F39"/>
<path d="M50.5116 41.4203C62.4302 26.5746 49.6574 3.60775 32.5254 8.06613C18.1404 11.8084 13.9583 32.4377 25.2418 43.0308C32.7075 50.0408 43.9295 49.621 50.5116 41.4231V41.4203Z" fill="#176F39"/>
</svg>
