<svg width="375" height="134" viewBox="0 0 375 134" fill="none" xmlns="http://www.w3.org/2000/svg">
<path d="M166.254 46.1361C174.786 55.9118 181.869 66.5919 187.536 78.7578C203.564 49.5454 225.336 26.886 253.747 13.3134C298.617 -8.11864 350.505 3.53762 398.138 0.487182C400.797 0.673797 400.488 1.67865 399.864 3.90367C394.261 23.8356 366.643 44.1623 349.269 49.4377C331.329 54.8783 322.327 50.6005 305.301 48.7056C252.459 42.8201 207.383 91.0242 211.053 150.167C211.375 155.32 214.054 164.328 213.487 168.649C213.049 172.008 209.198 180.161 207.737 183.808C202.501 196.835 196.191 209.324 190.646 222.179C189.919 223.865 188.927 229.571 187.704 226.421C180.472 206.862 172.255 187.806 164.187 168.678C165.5 148.961 166.943 131.642 161.115 112.528C151.063 79.5617 121.983 51.4474 90.3007 48.6267C68.5032 46.6887 51.7864 56.1487 29.8344 49.2726C12.5187 43.8536 -11.3716 26.0534 -20.6573 8.65518C-21.7971 6.52346 -25.0554 0.0278211 -21.1209 0.494359C47.3239 2.89164 113.76 -14.0042 166.26 46.1432L166.254 46.1361Z" fill="#67C9F5"/>
<path d="M141.274 255.073C137.468 259.594 129.934 263.427 124.744 265.717C42.0488 302.286 -43.1643 217.807 -27.0142 122.404C-24.5865 108.07 -13.3368 72.4484 -1.38524 65.5508C4.44245 62.1846 15.177 69.9148 18.841 75.1472C27.4119 87.3704 18.4997 95.8973 13.9857 107.094C-13.2789 174.713 41.3791 251.592 106.752 232.026C117.055 228.939 125.813 218.101 136.18 225.71C144.513 231.832 148.621 246.33 141.268 255.058L141.274 255.073Z" fill="#67C9F5"/>
<path d="M372.509 65.3002C379.676 64.0585 384.364 71.114 388.009 77.1072C405.253 105.458 408.956 148.803 400.54 181.231C382.973 248.865 318.443 291.93 257.082 267.541C250.668 264.993 239.509 259.624 235.523 253.53C230.197 245.398 233.198 234.129 239.721 228.064C250.172 218.353 256.187 226.536 266.587 230.39C331.477 254.442 387.989 178.561 363.983 109.628C360.049 98.331 350.364 88.0457 357.982 75.643C360.673 71.2647 367.802 66.1112 372.515 65.293L372.509 65.3002Z" fill="#67C9F5"/>
<path d="M56.1256 183.965C32.1193 162.49 33.5425 121.973 57.8385 101.431C93.719 71.092 143.271 107.037 132.813 155.571C124.564 193.827 83.5125 208.477 56.1256 183.973V183.965Z" fill="#67C9F5"/>
<path d="M254.415 178.991C223.235 140.153 256.649 80.0707 301.468 91.7341C339.1 101.524 350.04 155.492 320.522 183.204C300.991 201.543 271.634 200.444 254.415 178.998V178.991Z" fill="#67C9F5"/>
</svg>
