<svg viewBox="0 0 99.509 165.917" fill="none" xmlns="http://www.w3.org/2000/svg">
<g id="Bg-decorations">
<g id="Group 48096341">
<path id="Vector" d="M26.2931 33.716H91.7109L91.7109 133.208C91.7109 151.268 77.0626 165.917 59.002 165.917C40.9414 165.917 26.2931 151.268 26.2931 133.208L26.2931 33.716Z" fill="#9F459A"/>
<path id="Vector_2" d="M45.5805 132.902C44.3772 140.316 49.4122 147.302 56.8265 148.505C64.2409 149.708 71.2268 144.673 72.4301 137.259C73.6334 129.845 68.5984 122.859 61.1841 121.656C53.7697 120.452 46.7838 125.487 45.5805 132.902Z" fill="#FAF1E3"/>
</g>
<path id="Vector_3" d="M62.9247 38.325V101.219C28.1757 101.219 0 73.0431 0 38.2941H62.9247V38.325Z" fill="#001858"/>
<path id="Vector_4" d="M99.509 39.44C99.509 17.6525 81.8568 0.00019697 60.0692 0.00019697C38.2816 0.00019697 20.6294 17.6525 20.6294 39.44C20.6294 61.2276 38.2816 78.8798 60.0692 78.8798C81.8259 78.8798 99.509 61.2276 99.509 39.44Z" fill="#FDF6E4"/>
<path id="Vector_5" d="M37.8926 38.3942H62.0255V62.4963C48.6938 62.4963 37.8926 51.6951 37.8926 38.3942Z" fill="#176F39"/>
</g>
</svg>
