<svg viewBox="0 0 99.509 165.916" fill="none" xmlns="http://www.w3.org/2000/svg">
<g id="Bg-decorations">
<g id="Group 48096341">
<path id="Vector" d="M26.2931 33.7159H91.7109L91.7109 133.208C91.7109 151.268 77.0626 165.916 59.002 165.916C40.9414 165.916 26.2931 151.268 26.2931 133.208L26.2931 33.7159Z" fill="#176F39"/>
<path id="Vector_2" d="M45.5805 132.901C44.3772 140.316 49.4122 147.302 56.8265 148.505C64.2409 149.708 71.2268 144.673 72.4301 137.259C73.6334 129.845 68.5984 122.859 61.1841 121.655C53.7697 120.452 46.7838 125.487 45.5805 132.901Z" fill="#67C9F5"/>
</g>
<path id="Vector_3" d="M62.9247 38.3249V101.219C28.1757 101.219 0 73.043 0 38.294H62.9247V38.3249Z" fill="#EB9F00"/>
<path id="Vector_4" d="M99.509 39.4399C99.509 17.6523 81.8568 7.48995e-05 60.0692 7.48995e-05C38.2816 7.48995e-05 20.6294 17.6523 20.6294 39.4399C20.6294 61.2275 38.2816 78.8797 60.0692 78.8797C81.8259 78.8797 99.509 61.2275 99.509 39.4399Z" fill="#FDF6E4"/>
<path id="Vector_5" d="M37.8926 38.3941H62.0255V62.4962C48.6938 62.4962 37.8926 51.695 37.8926 38.3941Z" fill="#9F459A"/>
</g>
</svg>
