<svg width="120" height="68" viewBox="0 0 120 68" fill="none" xmlns="http://www.w3.org/2000/svg">
<path d="M53.8781 11.4061C56.2324 13.823 58.187 16.4634 59.7507 19.4711C64.1733 12.249 70.181 6.64697 78.0206 3.29143C90.4019 -2.00715 104.72 0.874598 117.864 0.120445C118.598 0.166581 118.512 0.415008 118.34 0.965096C116.794 5.89282 109.173 10.9181 104.379 12.2224C99.4285 13.5674 96.9444 12.5098 92.2463 12.0414C77.6652 10.5863 65.227 22.5037 66.2399 37.1254C66.3287 38.3995 67.0679 40.6264 66.9115 41.6947C66.7907 42.5251 65.7281 44.5409 65.3248 45.4424C63.8801 48.663 62.1388 51.7506 60.6089 54.9287C60.4081 55.3457 60.1345 56.7564 59.7969 55.9774C57.8014 51.142 55.5341 46.4307 53.3077 41.7018C53.6702 36.8273 54.0682 32.5455 52.4601 27.82C49.6864 19.6699 41.662 12.7192 32.9197 12.0219C26.905 11.5428 22.2922 13.8815 16.2348 12.1816C11.4568 10.8418 4.86451 6.44113 2.30225 2.1398C1.98774 1.61278 1.08864 0.00687815 2.17431 0.122219C21.0608 0.714894 39.3929 -3.46223 53.8799 11.4079L53.8781 11.4061Z" fill="#67C9F5"/>
<path d="M46.9852 63.061C45.935 64.1789 43.8561 65.1265 42.4239 65.6925C19.6052 74.7335 -3.90835 53.8479 0.548073 30.2616C1.21796 26.7179 4.32217 17.9112 7.62007 16.2059C9.22815 15.3737 12.1902 17.2848 13.2013 18.5784C15.5663 21.6004 13.1071 23.7084 11.8615 26.4766C4.33817 43.194 19.4204 62.2004 37.4593 57.3632C40.3023 56.6001 42.7189 53.9207 45.5796 55.8016C47.8789 57.3152 49.0126 60.8997 46.9834 63.0574L46.9852 63.061Z" fill="#67C9F5"/>
<path d="M110.792 16.144C112.769 15.837 114.063 17.5813 115.069 19.063C119.827 26.0721 120.849 36.7882 118.526 44.8053C113.679 61.5262 95.8729 72.173 78.9409 66.1434C77.1712 65.5134 74.0918 64.1861 72.9919 62.6796C71.5224 60.6691 72.3505 57.8832 74.1505 56.3837C77.0343 53.9829 78.6939 56.0058 81.5636 56.9587C99.4693 62.905 115.063 44.1452 108.439 27.1031C107.353 24.3101 104.681 21.7673 106.783 18.701C107.526 17.6185 109.493 16.3445 110.793 16.1422L110.792 16.144Z" fill="#67C9F5"/>
<path d="M23.4888 45.4812C16.8646 40.172 17.2573 30.1551 23.9615 25.0765C33.8623 17.5758 47.5354 26.4624 44.6497 38.4614C42.3735 47.9194 31.0459 51.5411 23.4888 45.483V45.4812Z" fill="#67C9F5"/>
<path d="M78.2043 44.2516C69.6006 34.6499 78.8209 19.7958 91.188 22.6793C101.572 25.0997 104.591 38.4419 96.4458 45.2932C91.0565 49.827 82.9557 49.5555 78.2043 44.2534V44.2516Z" fill="#67C9F5"/>
</svg>
