<svg width="125" height="125" viewBox="0 0 125 125" fill="none" xmlns="http://www.w3.org/2000/svg">
<g clip-path="url(#clip0_1037_11041)">
<path fill-rule="evenodd" clip-rule="evenodd" d="M11.5234 68.0628C11.5234 73.4201 12.3825 78.5803 13.9727 83.4176H-0.195312V94.9337H19.5064C20.432 96.3545 21.4289 97.7262 22.4921 99.0438L7.61719 113.662L15.9036 121.805L30.7785 107.187C39.4393 113.936 50.3931 117.966 62.3047 117.966C74.2163 117.966 85.1701 113.936 93.8309 107.187L108.706 121.805L116.992 113.662L102.117 99.0438C103.18 97.7262 104.177 96.3545 105.103 94.9337H124.805V83.4176H110.637C112.227 78.5803 113.086 73.4201 113.086 68.0628V2.80469C95.5951 2.80469 80.7893 14.1016 75.8117 29.6757H48.7976C43.8201 14.1016 29.0142 2.80469 11.5234 2.80469V68.0628ZM62.3047 98.7724L46.6797 83.4176H77.9297L62.3047 98.7724Z" fill="#0063A2"/>
</g>
<defs>
<clipPath id="clip0_1037_11041">
<rect width="124.609" height="124.609" fill="white"/>
</clipPath>
</defs>
</svg>
