<svg width="125" height="125" viewBox="0 0 125 125" fill="none" xmlns="http://www.w3.org/2000/svg">
<path d="M92.0547 10.3047C108.205 10.3047 121.305 23.5083 121.305 39.8047C121.305 63.964 106.56 82.5874 91.7305 95.2051C84.3219 101.509 76.9113 106.297 71.3516 109.509C68.5723 111.114 66.2567 112.325 64.6377 113.134C63.8282 113.538 63.1929 113.842 62.7607 114.045C62.5673 114.136 62.4141 114.205 62.3047 114.255C62.1953 114.205 62.0421 114.136 61.8486 114.045C61.4164 113.842 60.7811 113.538 59.9717 113.134C58.3526 112.325 56.037 111.114 53.2578 109.509C47.6981 106.297 40.2874 101.509 32.8789 95.2051C18.0492 82.5874 3.30469 63.964 3.30469 39.8047C3.30469 23.5083 16.4043 10.3047 32.5547 10.3047C48.7051 10.3047 61.8047 23.5083 61.8047 39.8047H62.8047C62.8047 23.5083 75.9043 10.3047 92.0547 10.3047Z" fill="#176F39" stroke="#FAF1E3"/>
</svg>
