<svg width="125" height="125" viewBox="0 0 125 125" fill="none" xmlns="http://www.w3.org/2000/svg">
<path d="M99.8047 40.2012V63.6299L100.181 63.7266C112.906 66.9746 122.305 78.429 122.305 92.0547C122.305 105.457 113.213 116.758 100.805 120.216V98.9922H84.8047V99.4922C84.8047 111.535 74.9589 121.305 62.8047 121.305C50.6505 121.305 40.8047 111.535 40.8047 99.4922V98.9922H24.8047V120.216C12.3969 116.758 3.30469 105.457 3.30469 92.0547C3.30469 78.429 12.703 66.9746 25.4287 63.7266L25.8047 63.6299V40.2012L62.8047 3.50879L99.8047 40.2012ZM62.8047 37.6504C57.3644 37.6504 52.9474 42.0246 52.9473 47.4297C52.9473 52.8349 57.3643 57.21 62.8047 57.21C68.2451 57.21 72.6621 52.8349 72.6621 47.4297C72.662 42.0246 68.245 37.6504 62.8047 37.6504Z" fill="#EB9F00" stroke="#FAF1E3"/>
</svg>
