<svg width="112" height="112" viewBox="0 0 112 112" fill="none" xmlns="http://www.w3.org/2000/svg">
<rect x="7.25" y="26.7672" width="95" height="80.1546" fill="#9F459A"/>
<path d="M62.3426 1C45.7003 1 32.209 13.5371 32.209 29.0024H92.4763C92.4763 13.5371 78.985 1 62.3426 1Z" fill="#0063A2"/>
<ellipse cx="6.35636" cy="8.50478" rx="6.35636" ry="8.50478" transform="matrix(-1 0 0 1 42.2012 44.2215)" fill="#FFFDFD"/>
<ellipse cx="6.35636" cy="8.50478" rx="6.35636" ry="8.50478" transform="matrix(-1 0 0 1 34.5723 44.2215)" fill="#FFFDFD"/>
<ellipse cx="3.17818" cy="4.40989" rx="3.17818" ry="4.40989" transform="matrix(-1 0 0 1 35.8438 48.002)" fill="black"/>
<ellipse cx="3.17818" cy="4.40989" rx="3.17818" ry="4.40989" transform="matrix(-1 0 0 1 28.2168 48.002)" fill="black"/>
</svg>
