<svg width="375" height="132" viewBox="0 0 375 132" fill="none" xmlns="http://www.w3.org/2000/svg">
<rect y="104" width="187.5" height="28" fill="#001858"/>
<rect x="187.5" y="104" width="187.5" height="28" fill="#DF0024"/>
<path d="M32.4178 132.201H-33V32.7089C-33 14.6483 -18.3517 0 -0.291092 0C17.7695 0 32.4178 14.6483 32.4178 32.7089V132.201Z" fill="#67C9F5"/>
<path d="M13.1305 33.015C14.3338 25.6006 9.29872 18.6147 1.88439 17.4114C-5.52994 16.2081 -12.5159 21.2431 -13.7192 28.6574C-14.9225 36.0718 -9.88746 43.0577 -2.47313 44.261C4.9412 45.4643 11.9272 40.4293 13.1305 33.015Z" fill="#0063A2"/>
<path d="M374.894 131.925H312C312 97.1757 340.176 69 374.925 69V131.925H374.894Z" fill="#0063A2"/>
<path d="M374.893 171.396C396.68 171.396 414.333 153.743 414.333 131.956C414.333 110.168 396.68 92.5159 374.893 92.5159C353.105 92.5159 335.453 110.168 335.453 131.956C335.453 153.712 353.105 171.396 374.893 171.396Z" fill="#FDF6E4"/>
<path d="M374.895 107.823V131.956H350.793C350.793 118.624 361.594 107.823 374.895 107.823Z" fill="#EB9F00"/>
</svg>
